<?xml version="1.0" encoding="utf-8"?>
<!-- Generator: Adobe Illustrator 26.0.1, SVG Export Plug-In . SVG Version: 6.00 Build 0)  -->
<svg version="1.1" id="Layer_1" xmlns="http://www.w3.org/2000/svg" xmlns:xlink="http://www.w3.org/1999/xlink" x="0px" y="0px"
	 viewBox="0 0 52 52" style="enable-background:new 0 0 52 52;" xml:space="preserve">
<path d="M10.7,17.6l-1.6-1.6c-0.2-0.2-0.2-0.6,0-0.8c0.2-0.2,0.6-0.2,0.8,0l1.6,1.6c0.2,0.2,0.2,0.6,0,0.8
	C11.3,17.8,10.9,17.8,10.7,17.6z"/>
<g>
	<path d="M9.1,42.9c-7.6-7.6-7.7-20.1,0-27.7c7.6-7.6,20.1-7.7,27.7,0c7.6,7.6,7.7,20.1,0,27.7S16.7,50.5,9.1,42.9z M36,15.9
		c-7.2-7.2-18.9-7.2-26.1,0s-7.2,18.9,0,26.1c7.2,7.2,18.9,7.2,26.1,0C43.2,34.9,43.2,23.2,36,15.9L36,15.9z"/>
	<path d="M13.8,38.1c-5-5-5-13.2,0-18.2s13.2-5,18.2,0c5,5,5,13.2,0,18.2S18.9,43.2,13.8,38.1z M31.3,20.7c-4.6-4.6-12-4.6-16.6,0
		c-4.6,4.6-4.6,12,0,16.6s12,4.6,16.6,0C35.8,32.7,35.8,25.3,31.3,20.7L31.3,20.7z"/>
	<path d="M18.6,33.4c-2.4-2.4-2.4-6.3,0-8.7s6.3-2.4,8.7,0c2.4,2.4,2.4,6.3,0,8.7C24.9,35.8,21,35.8,18.6,33.4z M26.5,25.5
		c-2-2-5.1-2-7.1,0c-2,2-2,5.1,0,7.1c2,2,5.1,2,7.1,0C28.5,30.6,28.5,27.4,26.5,25.5z"/>
	<path d="M22.5,29.4c-0.2-0.2-0.2-0.6,0-0.8l17-17c0.2-0.2,0.6-0.2,0.8,0c0.2,0.2,0.2,0.6,0,0.8l-17,17
		C23.1,29.6,22.8,29.6,22.5,29.4z"/>
	<path d="M39.3,12.7c-0.1-0.1-0.2-0.3-0.2-0.4l0-5.3c0-0.2,0.1-0.3,0.2-0.4L43.9,2c0.2-0.2,0.4-0.2,0.6-0.1c0.2,0.1,0.4,0.3,0.4,0.5
		v4.7l4.7,0c0.2,0,0.4,0.1,0.5,0.4c0.1,0.2,0,0.5-0.1,0.6l-4.6,4.6c-0.1,0.1-0.3,0.2-0.4,0.2l-5.3,0C39.5,12.9,39.4,12.8,39.3,12.7
		L39.3,12.7z M40.2,7.3l0,4.5l4.5,0l3.5-3.5l-3.9,0c-0.3,0-0.6-0.3-0.6-0.6V3.8L40.2,7.3z"/>
	<path d="M36,42.9l-1.6-1.6c-0.2-0.2-0.2-0.6,0-0.8c0.2-0.2,0.6-0.2,0.8,0l1.6,1.6c0.2,0.2,0.2,0.6,0,0.8
		C36.6,43.1,36.2,43.1,36,42.9z"/>
</g>
<path d="M9.1,42.9c-0.2-0.2-0.2-0.6,0-0.8l1.6-1.6c0.2-0.2,0.6-0.2,0.8,0c0.2,0.2,0.2,0.6,0,0.8l-1.6,1.6
	C9.7,43.1,9.3,43.1,9.1,42.9z"/>
</svg>
