<svg width="24" height="24" viewBox="0 0 24 24" fill="none" xmlns="http://www.w3.org/2000/svg">
<path d="M7.21892 9.21734L12 13.9984L16.7811 9.21734C16.9145 9.08285 17.096 9.0072 17.2855 9.0072C17.4749 9.0072 17.6565 9.08285 17.7899 9.21734C17.9244 9.35073 18 9.53231 18 9.72174C18 9.91116 17.9244 10.0927 17.7899 10.2261L12.5683 15.4406C12.4177 15.5915 12.2132 15.6764 12 15.6764C11.7868 15.6764 11.5823 15.5915 11.4317 15.4406L6.21014 10.2119C6.07565 10.0785 6 9.89695 6 9.70753C6 9.51811 6.07565 9.33653 6.21014 9.20313C6.34542 9.07051 6.52806 8.9974 6.71749 9.00007C6.90692 9.00274 7.08744 9.08096 7.21892 9.21734Z" fill="#70727D"/>
</svg>
