<svg width="14" height="14" viewBox="0 0 14 14" fill="none" xmlns="http://www.w3.org/2000/svg">
<g clip-path="url(#clip0_1401_1781)">
<path d="M7 0C4.1055 0 1.75 2.37183 1.75 5.28792C1.75 9.43133 6.5065 13.7095 6.70892 13.8892C6.79233 13.9633 6.89617 14 7 14C7.10383 14 7.20767 13.9633 7.29108 13.8898C7.4935 13.7095 12.25 9.43133 12.25 5.28792C12.25 2.37183 9.8945 0 7 0ZM7 7.875C5.39175 7.875 4.375 6.85825 4.375 5.25C4.375 3.64175 5.39175 2.625 7 2.625C8.60825 2.625 9.625 3.64175 9.625 5.25C9.625 6.85825 8.60825 7.875 7 7.875Z" fill="#383838"/>
</g>
<defs>
<clipPath id="clip0_1401_1781">
<rect width="14" height="14" fill="white"/>
</clipPath>
</defs>
</svg>
