<?xml version="1.0" encoding="UTF-8"?>
<svg xmlns="http://www.w3.org/2000/svg" width="24" height="24" viewBox="0 0 24 24" fill="none">
  <g clip-path="url(#clip0_1401_1731)">
    <path d="M12 24C18.6274 24 24 18.6274 24 12C24 5.37258 18.6274 0 12 0C5.37258 0 0 5.37258 0 12C0 18.6274 5.37258 24 12 24Z" fill="#F2F2F2"></path>
    <path d="M3.20172 7.7372L5.71422 5.0957L6.27597 5.6792L3.76347 8.32145L3.20172 7.7372Z" fill="#28292B"></path>
    <path d="M4.00952 8.59586L6.52127 5.95361L7.08377 6.53711L4.57202 9.17936L4.00952 8.59586Z" fill="#28292B"></path>
    <path d="M4.79321 9.41787L7.30496 6.77637L7.86746 7.35912L5.35496 10.0014L4.79321 9.41787Z" fill="#28292B"></path>
    <path d="M17.574 15.1305L18.5602 14.0918L19.1227 14.676L18.135 15.717L17.574 15.1305Z" fill="#28292B"></path>
    <path d="M16.6102 17.3173L16.047 16.7338L17.0137 15.7168L17.574 16.3018L16.6102 17.3173Z" fill="#28292B"></path>
    <path d="M18.3907 15.9802L19.368 14.9512L19.9297 15.5347L18.9502 16.5659L18.3907 15.9802Z" fill="#28292B"></path>
    <path d="M17.4194 18.1754L16.8569 17.5912L17.8297 16.5659L18.3907 17.1517L17.4194 18.1754Z" fill="#28292B"></path>
    <path d="M19.7378 17.3837L19.1768 16.7979L20.151 15.7734L20.712 16.3569L19.7378 17.3837Z" fill="#28292B"></path>
    <path d="M18.2032 18.9992L17.6415 18.415L18.618 17.3867L19.179 17.9717L18.2032 18.9992Z" fill="#28292B"></path>
    <path d="M19.8045 6.59619L20.7983 7.62744L20.2395 8.21544L19.2443 7.18194L19.8045 6.59619Z" fill="#28292B"></path>
    <path d="M17.7119 5.58823L18.2714 5.00098L19.2442 6.01048L18.6839 6.59623L17.7119 5.58823Z" fill="#28292B"></path>
    <path d="M16.8922 6.43419L17.451 5.84619L19.9762 8.47044L19.4182 9.05844L16.8922 6.43419Z" fill="#28292B"></path>
    <path d="M17.6482 8.85723L18.2092 8.27148L19.1902 9.28848L18.6314 9.87648L17.6482 8.85723Z" fill="#28292B"></path>
    <path d="M16.104 7.25402L16.662 6.66602L17.6468 7.68752L17.0858 8.27327L16.104 7.25402Z" fill="#28292B"></path>
    <path d="M4.82544 14.6385L5.38419 14.0513L7.91244 16.6778L7.35369 17.265L4.82544 14.6385Z" fill="#28292B"></path>
    <path d="M6.10568 16.499L7.09043 17.5213L6.53168 18.1085L5.54468 17.0855L6.10568 16.499Z" fill="#28292B"></path>
    <path d="M4.00574 15.4845L4.56449 14.8965L5.54474 15.9142L4.98449 16.4992L4.00574 15.4845Z" fill="#28292B"></path>
    <path d="M3.21747 16.304L3.77547 15.7168L6.30372 18.3395L5.74497 18.9268L3.21747 16.304Z" fill="#28292B"></path>
    <path d="M16.2825 11.9999C16.3077 13.1582 15.8719 14.279 15.071 15.1161C14.27 15.9531 13.1695 16.4379 12.0113 16.4639C10.8532 16.4377 9.75286 15.9529 8.9521 15.1158C8.15133 14.2788 7.71565 13.158 7.74079 11.9999C7.71545 10.8417 8.15104 9.72074 8.95183 8.88352C9.75261 8.04631 10.8531 7.56132 12.0113 7.53516C13.1696 7.56132 14.2701 8.04629 15.071 8.88348C15.8719 9.72067 16.3077 10.8416 16.2825 11.9999Z" fill="#2E4593"></path>
    <path d="M16.26 12.0002C16.261 12.209 16.2467 12.4175 16.2172 12.6242C16.0935 11.74 15.6315 10.1447 13.8818 10.114C13.4508 10.0594 13.0145 10.1597 12.6507 10.397C12.2868 10.6342 12.019 10.9929 11.895 11.4092C11.5042 12.4225 11.4622 13.6592 9.74475 13.6592C9.27011 13.6921 8.80017 13.5475 8.42603 13.2536C8.05189 12.9597 7.8002 12.5374 7.71975 12.0685C7.71825 12.0465 7.71825 12.0244 7.71975 12.0025C7.71772 11.2727 7.88918 10.5529 8.22 9.90245C8.56817 9.19727 9.10511 8.60247 9.77112 8.1842C10.4371 7.76593 11.2061 7.54058 11.9925 7.5332C13.1505 7.56054 14.2503 8.04631 15.0504 8.88384C15.8505 9.72136 16.2856 10.8422 16.26 12.0002Z" fill="#DB2E2E"></path>
  </g>
  <rect x="0.5" y="0.5" width="23" height="23" rx="11.5" stroke="url(#paint0_linear_1401_1731)" stroke-opacity="0.2"></rect>
  <defs>
    <linearGradient id="paint0_linear_1401_1731" x1="0.64" y1="11.9636" x2="24.64" y2="11.9636" gradientUnits="userSpaceOnUse">
      <stop offset="0.01" stop-color="#3F7D73"></stop>
      <stop offset="0.69" stop-color="#255361"></stop>
      <stop offset="1" stop-color="#1E2F5E"></stop>
    </linearGradient>
    <clipPath id="clip0_1401_1731">
      <rect width="24" height="24" rx="12" fill="white"></rect>
    </clipPath>
  </defs>
</svg>
