<svg width="14" height="14" viewBox="0 0 14 14" fill="none" xmlns="http://www.w3.org/2000/svg">
<g clip-path="url(#clip0_1401_1802)">
<path d="M13.4635 2.85888C12.9263 2.11969 11.9856 1.45251 10.8146 0.98028C9.64988 0.510624 8.29757 0.250885 7.00669 0.249053C5.71571 0.245827 4.36173 0.502885 3.19536 0.968878C2.02231 1.43758 1.07934 2.10187 0.540172 2.8393C0.0223357 3.54756 -0.126906 4.31097 0.108551 5.04701C0.26132 5.52446 0.706886 5.84575 1.21756 5.84648L2.96622 5.84812C2.96682 5.84812 2.96739 5.84812 2.96797 5.84812C3.31666 5.8481 3.64426 5.69546 3.86689 5.42916C4.08718 5.16571 4.17839 4.82139 4.11725 4.48446C4.11545 4.47457 4.11329 4.46475 4.1108 4.45499L4.01879 4.09728C4.52831 3.85416 5.68277 3.38445 7.00131 3.39192C8.31889 3.39867 9.47255 3.86811 9.98268 4.11133L9.88919 4.46702C9.88654 4.47711 9.88427 4.48723 9.88241 4.49742C9.82031 4.83416 9.91057 5.17872 10.1301 5.44281C10.3523 5.71023 10.6802 5.86385 11.0298 5.86437L12.7784 5.86601C12.779 5.86601 12.7796 5.86601 12.7802 5.86601C13.2899 5.86598 13.7356 5.54619 13.8895 5.06973C14.1272 4.33388 13.9799 3.56941 13.4635 2.85888Z" fill="#fff"/>
<path d="M10.9538 7.65105L9.6498 6.28181C9.57094 6.19902 9.46162 6.15218 9.3473 6.15218H8.50456V5.5828C8.50456 5.3521 8.31753 5.16504 8.08681 5.16504C7.85608 5.16504 7.66905 5.35207 7.66905 5.5828V6.15218H6.33134V5.5828C6.33134 5.3521 6.14431 5.16504 5.91358 5.16504C5.68285 5.16504 5.49582 5.35207 5.49582 5.5828V6.15218H4.65311C4.53879 6.15218 4.42944 6.19904 4.35061 6.28181L3.04659 7.65105C2.02415 8.72462 1.46106 10.1323 1.46106 11.6149V13.3335C1.46106 13.5642 1.64809 13.7513 1.87882 13.7513H12.1216C12.3523 13.7513 12.5393 13.5642 12.5393 13.3335V11.6149C12.5394 10.1323 11.9763 8.72465 10.9538 7.65105ZM7.00019 12.2242C5.79461 12.2242 4.81381 11.2434 4.81381 10.0378C4.81381 8.83225 5.79463 7.85143 7.00019 7.85143C8.20575 7.85143 9.18657 8.83225 9.18657 10.0378C9.18657 11.2434 8.20575 12.2242 7.00019 12.2242Z" fill="#fff"/>
<path d="M7.00016 8.68701C6.25526 8.68701 5.64929 9.293 5.64929 10.0379C5.64929 10.7828 6.25528 11.3888 7.00016 11.3888C7.74503 11.3888 8.35102 10.7828 8.35102 10.0379C8.35102 9.29303 7.74503 8.68701 7.00016 8.68701Z" fill="#37A76B"/>
</g>
<defs>
<clipPath id="clip0_1401_1802">
<rect width="14" height="14" fill="white"/>
</clipPath>
</defs>
</svg>
