<svg width="20" height="20" viewBox="0 0 20 20" fill="none" xmlns="http://www.w3.org/2000/svg">
<g opacity="0.7">
<path d="M6.99331 17.2235C6.92963 17.2226 6.86727 17.2051 6.81244 17.1727C6.7576 17.1403 6.71218 17.0942 6.68069 17.0388C5.34668 14.6936 1.77492 9.69257 1.73899 9.64232C1.68795 9.57094 1.66431 9.48357 1.67238 9.3962C1.68045 9.30882 1.7197 9.22727 1.78295 9.16644L2.91661 8.07628C2.9782 8.01705 3.0586 7.98128 3.14383 7.97519C3.22906 7.9691 3.31373 7.99307 3.38311 8.04294L7.00653 10.6471C9.48108 7.55579 11.7705 5.43033 13.2733 4.18005C14.9578 2.77844 16.0251 2.15285 16.0697 2.12678C16.127 2.09347 16.1922 2.07634 16.2584 2.07724L18.0681 2.10184C18.1422 2.10284 18.2142 2.12632 18.2746 2.16918C18.335 2.21205 18.381 2.27226 18.4064 2.34184C18.4318 2.41142 18.4355 2.48708 18.4169 2.55879C18.3983 2.63051 18.3584 2.69488 18.3024 2.74338C15.5871 5.0963 12.7463 8.85485 10.8413 11.5934C8.77042 14.5703 7.32764 17.0189 7.31331 17.0433C7.28083 17.0985 7.23439 17.1443 7.17865 17.1759C7.1229 17.2075 7.05982 17.224 6.99573 17.2235L6.99331 17.2235Z" fill="#37A76B"/>
</g>
</svg>
