<svg width="18" height="18" viewBox="0 0 18 18" fill="none" xmlns="http://www.w3.org/2000/svg">
<path fill-rule="evenodd" clip-rule="evenodd" d="M3.75061 13.1898C3.45774 13.4827 3.45778 13.9576 3.7507 14.2504C4.04362 14.5433 4.51849 14.5433 4.81136 14.2504L9.00029 10.0607L13.1896 14.25C13.4824 14.5429 13.9573 14.5429 14.2502 14.25C14.5431 13.9571 14.5431 13.4822 14.2502 13.1893L10.0609 8.99998L14.2499 4.81019C14.5427 4.51727 14.5427 4.0424 14.2498 3.74954C13.9569 3.45666 13.482 3.45671 13.1891 3.74963L9.00014 7.93933L4.81085 3.74999C4.51796 3.4571 4.04308 3.4571 3.75019 3.74999C3.45729 4.04288 3.45729 4.51775 3.75019 4.81065L7.93964 9.00005L3.75061 13.1898Z" fill="white"/>
</svg>
