<svg width="54" height="54" viewBox="0 0 54 54" fill="none" xmlns="http://www.w3.org/2000/svg">
<circle cx="26.8617" cy="26.8617" r="26.8617" fill="#dc3545"/>
<path d="M19.6448 37.1844L19.1976 36.29L19.6448 37.1844ZM38.5041 25.9659L38.9513 25.0715L38.5041 25.9659ZM38.5041 27.7548L38.9513 28.6492L38.5041 27.7548ZM20.0921 15.6419L38.9513 25.0715L38.0569 26.8604L19.1976 17.4307L20.0921 15.6419ZM38.9513 28.6492L20.0921 38.0789L19.1976 36.29L38.0569 26.8604L38.9513 28.6492ZM18.9082 17.6096V36.1111H16.9082V17.6096H18.9082ZM20.0921 38.0789C18.6293 38.8102 16.9082 37.7465 16.9082 36.1111H18.9082C18.9082 36.2598 19.0646 36.3565 19.1976 36.29L20.0921 38.0789ZM38.9513 25.0715C40.4254 25.8086 40.4254 27.9122 38.9513 28.6492L38.0569 26.8604L38.0569 26.8604L38.9513 25.0715ZM19.1976 17.4307C19.0646 17.3642 18.9082 17.4609 18.9082 17.6096H16.9082C16.9082 15.9742 18.6293 14.9105 20.0921 15.6419L19.1976 17.4307Z" fill="white"/>
</svg>
